<?xml version="1.0" encoding="UTF-8"?>
<svg xmlns="http://www.w3.org/2000/svg" id="Layer_1" data-name="Layer 1" viewBox="0 0 502.34 65.57">
  <defs>
    <style>.cls-1{fill:#24285d;}.cls-2{isolation:isolate;}</style>
  </defs>
  <title>Artboard 3 copy</title>
  <path class="cls-1" d="M0,32.79,32.8,0,65.58,32.79,32.79,65.57Zm47.49.14L32.55,18,17.91,32.7c4.9,4.91,10,10,14.87,14.93Z"></path>
  <g class="cls-2">
    <g class="cls-2">
      <path class="cls-1" d="M75.74,27.3V17.94c0-1,0-1.72,0-2.27s-.06-1.07-.1-1.55A6.37,6.37,0,0,0,75,11.75a2.52,2.52,0,0,0-2-1,8.28,8.28,0,0,0-1-.11l-1.12,0a.45.45,0,0,1-.5-.51c0-.33.34-.5,1-.5l2.3,0c.82,0,1.59,0,2.31,0s1.33,0,1.83,0l.9,0,1.12,0c.55,0,1.21,0,2,0s1.68,0,2.59,0,1.85,0,2.81,0l5.58,0a44.17,44.17,0,0,1,6.69.62,29.09,29.09,0,0,1,6.92,2,19.85,19.85,0,0,1,6.22,4.28,23.34,23.34,0,0,1,4.29,6.23,20.87,20.87,0,0,1,1.91,9.32,24.93,24.93,0,0,1-.58,5.44,26.63,26.63,0,0,1-1.51,4.72,21.75,21.75,0,0,1-2.2,3.92A29.2,29.2,0,0,1,112,49.33a21.53,21.53,0,0,1-2.63,2.31,20.25,20.25,0,0,1-4,2.26,29.8,29.8,0,0,1-5.47,1.77,32.2,32.2,0,0,1-7.17.72c-1.39,0-2.87,0-4.43-.11s-3-.16-4.42-.25l-3.53-.25c-1-.08-1.51-.11-1.66-.11l-.86,0c-.48,0-1.06,0-1.73,0s-1.34.08-2,.11l-1.8,0c-.67,0-1-.17-1-.5a.44.44,0,0,1,.5-.5,7.15,7.15,0,0,0,1-.08,5,5,0,0,0,1-.21,1.49,1.49,0,0,0,1.19-1.05,15.75,15.75,0,0,0,.47-2.19A40,40,0,0,0,75.7,46q0-3.45,0-7.92Zm5.76,6.62v8.72c0,1.15,0,2.13,0,3s0,1.37,0,1.65c.05.77.12,1.61.22,2.52a4.18,4.18,0,0,0,.5,1.88,3.49,3.49,0,0,0,.94.86,7,7,0,0,0,1.83.79,18.82,18.82,0,0,0,3.06.58,43.25,43.25,0,0,0,4.68.21,23.23,23.23,0,0,0,8.18-1.4,19.46,19.46,0,0,0,6.66-4.14,12.42,12.42,0,0,0,2.16-2.77,17.86,17.86,0,0,0,1.54-3.53,26.36,26.36,0,0,0,.94-4A27.41,27.41,0,0,0,112.6,34a23.09,23.09,0,0,0-.57-5.3,25.43,25.43,0,0,0-1.44-4.32,17.1,17.1,0,0,0-2-3.31c-.72-.93-1.39-1.74-2-2.41a21.74,21.74,0,0,0-4.65-3.6A22,22,0,0,0,97,13,27.78,27.78,0,0,0,91.65,12c-1.82-.15-3.67-.22-5.54-.22A19.91,19.91,0,0,0,84,12a11,11,0,0,0-1.66.29,1.17,1.17,0,0,0-.79,1.23Z"></path>
    </g>
    <g class="cls-2">
      <path class="cls-1" d="M134.85,27.3V17.94c0-1,0-1.72,0-2.27s-.06-1.07-.1-1.55a6.37,6.37,0,0,0-.58-2.37,2.52,2.52,0,0,0-2-1,8.28,8.28,0,0,0-1-.11l-1.12,0a.45.45,0,0,1-.5-.51c0-.33.34-.5,1-.5l2.3,0c.82,0,1.59,0,2.31,0s1.33,0,1.83,0l.9,0h15.12c.63-.05,1.2-.11,1.73-.18s.91-.13,1.15-.18a3.25,3.25,0,0,0,.43-.18,1,1,0,0,1,.44-.11c.19,0,.28.2.28.58a3.67,3.67,0,0,1-.18,1,12.92,12.92,0,0,0-.32,1.91c0,.14,0,.4,0,.76s-.06.75-.1,1.18-.09.84-.11,1.23a5.56,5.56,0,0,1-.11.86,1.59,1.59,0,0,1-.22.43.4.4,0,0,1-.36.22c-.33,0-.5-.26-.5-.79a8.1,8.1,0,0,0-.07-1,5.31,5.31,0,0,0-.29-1.19,2.28,2.28,0,0,0-.4-.65,2.09,2.09,0,0,0-.75-.5,7.24,7.24,0,0,0-1.3-.4,18.13,18.13,0,0,0-2.09-.32,14.63,14.63,0,0,0-1.8-.11l-2.91-.07c-1,0-2,0-2.85,0H141c-.24,0-.36.22-.36.65V29.46c0,.43.12.65.36.65h5c1.2,0,2.33,0,3.38,0s1.78-.06,2.16-.11c.77-.09,1.4-.18,1.88-.25a2.1,2.1,0,0,0,1.22-.61c.53-.53.84-.79.94-.79s.36.17.36.5a6,6,0,0,1-.18,1.08,20.24,20.24,0,0,0-.33,2.31c-.09.62-.17,1.38-.21,2.26s-.08,1.46-.08,1.7a2.87,2.87,0,0,1-.1.75.47.47,0,0,1-.47.4c-.29,0-.43-.19-.43-.58s0-.6,0-.93a4.18,4.18,0,0,0-.25-1.08,2.1,2.1,0,0,0-.76-1.16,5.28,5.28,0,0,0-2.48-.72c-.43,0-1.13-.09-2.09-.14s-1.94-.08-2.95-.11l-2.81,0H141a.38.38,0,0,0-.43.43V48.54A10.84,10.84,0,0,0,141,51a2.62,2.62,0,0,0,1.12,1.52,5.32,5.32,0,0,0,2.26.72,32.26,32.26,0,0,0,3.82.18c.82,0,1.87,0,3.17-.08a9.37,9.37,0,0,0,3.17-.57,5.06,5.06,0,0,0,1.9-1.48,6.21,6.21,0,0,0,1-2.77c.14-.62.36-.94.64-.94a.33.33,0,0,1,.36.29,2.57,2.57,0,0,1,.08.65c0,.1,0,.4-.08.9s-.12,1.08-.21,1.73-.19,1.27-.29,1.87a12.21,12.21,0,0,1-.29,1.4,2.36,2.36,0,0,1-.39.9,1.49,1.49,0,0,1-.62.47,2.94,2.94,0,0,1-1,.18c-.41,0-.92,0-1.55,0-2.4,0-4.51,0-6.33-.07l-4.68-.15c-1.35-.1-2.45-.14-3.31-.14h-2.88c-.53,0-1.13,0-1.8.07s-1.26.08-1.91.11l-1.77,0c-.67,0-1-.17-1-.5a.44.44,0,0,1,.5-.5,5.14,5.14,0,0,0,1-.11l1-.18a1.35,1.35,0,0,0,1.19-1,17.6,17.6,0,0,0,.47-2.23,40,40,0,0,0,.32-5.33q0-3.45,0-7.92Z"></path>
    </g>
    <g class="cls-2">
      <path class="cls-1" d="M231.54,46.6a20.85,20.85,0,0,0,.29,2.16,15.29,15.29,0,0,0,.61,2.23,7.18,7.18,0,0,0,1.12,2,3.77,3.77,0,0,0,1.87,1.26,11.66,11.66,0,0,0,2.85.57c.84.05,1.45.08,1.83.08s.58.12.58.36-.15.4-.43.5a3.37,3.37,0,0,1-1.08.14l-2.16,0c-1.06,0-2.21-.06-3.46-.11l-3.64-.14c-1.17-.05-2.1-.1-2.77-.15a8.12,8.12,0,0,1-1.62-.29c-.26-.09-.39-.24-.39-.43s.16-.45.5-.5.31-.33.36-.83a7.75,7.75,0,0,0-.07-1.76l-3.46-37.16h-.21L204.62,51.92c-.77,1.59-1.28,2.62-1.52,3.1s-.52.72-.86.72-.5-.23-.79-.68-.77-1.34-1.44-2.63c-.48-.87-1.17-2.2-2-4s-1.79-3.61-2.7-5.43-1.73-3.45-2.45-4.86l-1.23-2.42-.86-1.8L189,30.29q-1-2.13-2.12-4.57c-.75-1.64-1.45-3.17-2.13-4.61s-1.24-2.7-1.72-3.78-.8-1.79-.94-2.13h-.29l-2.88,33.41c0,.58-.07,1.18-.07,1.8v1.87a2.35,2.35,0,0,0,1.87,2.24,12.77,12.77,0,0,0,1.66.28c.48.05.84.08,1.08.08s.57.12.57.36c0,.43-.43.64-1.29.64l-2.09,0-2-.07-1.66-.08-.9,0-.93,0-1.62.08-1.84.07-1.66,0c-.81,0-1.22-.21-1.22-.64q0-.36.72-.36c.29,0,.59,0,.9,0a11,11,0,0,0,1.26-.18,2.67,2.67,0,0,0,2.23-2.12,27.69,27.69,0,0,0,.65-3.86L179.7,1.74c.1-.86.36-1.3.8-1.3s.74.36,1.08,1.08l22,45.29L224.78,1.6c.33-.77.69-1.16,1.08-1.16s.72.65.86,2Z"></path>
    </g>
    <g class="cls-2">
      <path class="cls-1" d="M261.79,10.81a11.88,11.88,0,0,1,.86-1.94.79.79,0,0,1,.65-.43.82.82,0,0,1,.76.61c.16.41.42.95.75,1.62.19.43.61,1.44,1.26,3s1.43,3.49,2.34,5.73l3,7.34,3.2,7.88q1.59,3.9,3,7.38t2.41,5.8a24.44,24.44,0,0,0,1.62,3.31,12.66,12.66,0,0,0,1.44,1.95,4.83,4.83,0,0,0,1.26,1,6.47,6.47,0,0,0,1.08.44,7.42,7.42,0,0,0,1.37.28,10.28,10.28,0,0,0,1.15.08,1.33,1.33,0,0,1,.54.1.41.41,0,0,1,.26.4c0,.19-.15.32-.44.4a4.22,4.22,0,0,1-1,.1h-3.75l-3,0c-1.08,0-2.17-.06-3.27-.11l-1.59-.11c-.43,0-.64-.13-.64-.32s0-.23.1-.25a3,3,0,0,0,.94-.69c.22-.24.2-.62,0-1.15l-5.68-14a.66.66,0,0,0-.58-.36H255.16a.7.7,0,0,0-.64.5l-3.6,9.8a11.83,11.83,0,0,0-.94,4.1,1.35,1.35,0,0,0,.68,1.3,3.14,3.14,0,0,0,1.48.36h.58c.43,0,.64.16.64.5s-.31.5-.93.5l-1.44,0-1.73-.07-1.55-.08-1,0-.9,0-1.58.08-1.95.07-2,0c-.81,0-1.22-.17-1.22-.5s.19-.5.57-.5.56,0,.94,0a6.41,6.41,0,0,0,.94-.11,4.59,4.59,0,0,0,3.27-1.8,17.28,17.28,0,0,0,2-3.81Zm7,25.49c.2,0,.27-.14.22-.43L262.8,19.09q-.58-1.36-1.08,0l-5.91,16.78c-.09.29,0,.43.22.43Z"></path>
    </g>
    <g class="cls-2">
      <path class="cls-1" d="M296.06,56.32a15.71,15.71,0,0,1-4.47-1.3,1.71,1.71,0,0,1-.79-.72,5.24,5.24,0,0,1-.14-1.58c0-1.54,0-2.87.14-4s.17-2,.22-2.48c0-.68.16-1,.5-1s.58.24.58.72c0,.24,0,.56,0,1a8.13,8.13,0,0,0,.18,1.26A6.23,6.23,0,0,0,293.68,51a8.06,8.06,0,0,0,2.41,1.87,11.43,11.43,0,0,0,3,1,16,16,0,0,0,3.2.33c3.17,0,5.54-.78,7.13-2.34a7.82,7.82,0,0,0,2.37-5.8,8.7,8.7,0,0,0-.46-3,8.84,8.84,0,0,0-1.44-2.48,17,17,0,0,0-2.49-2.42c-1-.81-2.21-1.75-3.6-2.8L301,33.28a29.48,29.48,0,0,1-7.09-6.88,11.36,11.36,0,0,1-2-6.23,11.15,11.15,0,0,1,1-4.82,9.92,9.92,0,0,1,2.88-3.64,13.64,13.64,0,0,1,4.43-2.27,19.53,19.53,0,0,1,5.72-.79,28.82,28.82,0,0,1,3.64.22,24.62,24.62,0,0,1,2.91.5,9,9,0,0,0,1.41.25c.31,0,.58,0,.82,0,.44,0,.65.14.65.43s-.05.73-.14,1.77-.15,2.6-.15,4.71c0,.91-.16,1.37-.5,1.37s-.39-.07-.43-.22a4.49,4.49,0,0,1-.15-.57,8.56,8.56,0,0,0-.36-1.55,7.41,7.41,0,0,0-.57-1.48,3.74,3.74,0,0,0-.65-.79,6.38,6.38,0,0,0-1.48-1,11.23,11.23,0,0,0-2.44-.86,15.69,15.69,0,0,0-3.64-.36,10.3,10.3,0,0,0-5.94,1.69,5.58,5.58,0,0,0-2.48,4.93,8.79,8.79,0,0,0,.39,2.67,7.58,7.58,0,0,0,1.37,2.41,17.94,17.94,0,0,0,2.52,2.45q1.55,1.26,3.92,2.84l1.8,1.23a39.27,39.27,0,0,1,4.86,3.78,22.37,22.37,0,0,1,3.21,3.6,12.5,12.5,0,0,1,1.76,3.6,13.29,13.29,0,0,1,.54,3.78,13,13,0,0,1-1.26,5.47,12.43,12.43,0,0,1-4.64,5,12.18,12.18,0,0,1-4.75,1.72,34,34,0,0,1-5.33.44A33.63,33.63,0,0,1,296.06,56.32Z"></path>
      <path class="cls-1" d="M348.47,38.1q0,4.47,0,7.92c0,2.3.11,4.08.25,5.33a6.21,6.21,0,0,0,.57,2.19,2.35,2.35,0,0,0,1.88,1.05,11.05,11.05,0,0,0,1.54.21c.6.05,1.05.08,1.34.08a.44.44,0,0,1,.5.5c0,.33-.34.5-1,.5l-2.62,0-2.45-.07-1.88-.08-.89,0-.91,0-1.79.08-2.09.07-1.77,0c-.67,0-1-.17-1-.5s.17-.43.51-.43a8.18,8.18,0,0,0,.94-.07,5.27,5.27,0,0,0,.93-.22,1.77,1.77,0,0,0,1.37-1.08,7.94,7.94,0,0,0,.5-2.23,51.9,51.9,0,0,0,.25-5.33q0-3.45,0-7.92V12.4l-9.14.14a18.26,18.26,0,0,0-4.36.47,3.58,3.58,0,0,0-2,1.47,5.72,5.72,0,0,0-.72,1.19c-.1.27-.19.52-.29.76a.64.64,0,0,1-.65.57.42.42,0,0,1-.43-.5,8.52,8.52,0,0,1,.22-1.22c.14-.68.3-1.38.46-2.13s.33-1.44.47-2.09a7.71,7.71,0,0,0,.22-1.18c.1-.2.2-.44.32-.72s.23-.44.33-.44A2.24,2.24,0,0,1,328,9a5.92,5.92,0,0,0,1.88.43c.91.1,1.87.17,2.88.22s1.7.07,2.08.07h23.91c1.05,0,1.94,0,2.66-.07a16.37,16.37,0,0,0,1.87-.22l1.16-.21a3.9,3.9,0,0,1,.64-.07c.19,0,.29.24.29.72s0,1.08,0,1.8-.05,1.42-.08,2.12,0,1.33-.07,1.91,0,1,0,1.15c0,.53-.19.79-.57.79a.34.34,0,0,1-.32-.21,2.84,2.84,0,0,1-.19-.87l-.07-.65a3,3,0,0,0-.43-1.29,3.28,3.28,0,0,0-1.19-1.05,7.34,7.34,0,0,0-2.3-.72,30,30,0,0,0-3.71-.32l-7.92-.14Z"></path>
    </g>
    <g class="cls-2">
      <path class="cls-1" d="M381.38,27.3V17.94c0-1,0-1.72,0-2.27s-.06-1.07-.1-1.55a6.37,6.37,0,0,0-.58-2.37,2.52,2.52,0,0,0-2-1,8.28,8.28,0,0,0-1-.11l-1.12,0a.45.45,0,0,1-.5-.51c0-.33.34-.5,1-.5l2.3,0c.82,0,1.59,0,2.31,0s1.33,0,1.83,0l.9,0h15.12c.63-.05,1.2-.11,1.73-.18s.91-.13,1.15-.18a3.25,3.25,0,0,0,.43-.18,1,1,0,0,1,.44-.11c.19,0,.28.2.28.58a3.67,3.67,0,0,1-.18,1,12.92,12.92,0,0,0-.32,1.91c0,.14,0,.4,0,.76s-.06.75-.1,1.18-.09.84-.11,1.23a5.56,5.56,0,0,1-.11.86,1.59,1.59,0,0,1-.22.43.4.4,0,0,1-.36.22c-.33,0-.5-.26-.5-.79a8.1,8.1,0,0,0-.07-1,5.31,5.31,0,0,0-.29-1.19,2.28,2.28,0,0,0-.4-.65,2,2,0,0,0-.75-.5,7.24,7.24,0,0,0-1.3-.4,18.13,18.13,0,0,0-2.09-.32,14.79,14.79,0,0,0-1.8-.11l-2.91-.07c-1,0-2,0-2.85,0H387.5c-.24,0-.36.22-.36.65V29.46c0,.43.12.65.36.65h5c1.2,0,2.33,0,3.38,0s1.78-.06,2.16-.11c.77-.09,1.4-.18,1.88-.25a2.1,2.1,0,0,0,1.22-.61c.53-.53.84-.79.94-.79s.36.17.36.5a6,6,0,0,1-.18,1.08A20.24,20.24,0,0,0,402,32.2c-.09.62-.17,1.38-.21,2.26s-.08,1.46-.08,1.7a2.87,2.87,0,0,1-.1.75.47.47,0,0,1-.47.4c-.29,0-.43-.19-.43-.58s0-.6,0-.93a3.81,3.81,0,0,0-.25-1.08,2.1,2.1,0,0,0-.76-1.16,5.28,5.28,0,0,0-2.48-.72c-.43,0-1.13-.09-2.09-.14s-1.94-.08-2.95-.11l-2.81,0h-1.73a.38.38,0,0,0-.43.43V48.54A10.84,10.84,0,0,0,387.5,51a2.62,2.62,0,0,0,1.12,1.52,5.32,5.32,0,0,0,2.26.72,32.26,32.26,0,0,0,3.82.18c.82,0,1.87,0,3.17-.08a9.37,9.37,0,0,0,3.17-.57,5.06,5.06,0,0,0,1.9-1.48,6.21,6.21,0,0,0,1-2.77c.14-.62.36-.94.64-.94a.34.34,0,0,1,.36.29,2.57,2.57,0,0,1,.08.65c0,.1,0,.4-.08.9s-.12,1.08-.21,1.73-.19,1.27-.29,1.87a12.21,12.21,0,0,1-.29,1.4,2.36,2.36,0,0,1-.39.9,1.49,1.49,0,0,1-.62.47,2.94,2.94,0,0,1-1,.18c-.41,0-.92,0-1.55,0-2.4,0-4.51,0-6.33-.07l-4.68-.15c-1.35-.1-2.45-.14-3.31-.14H383.4c-.53,0-1.13,0-1.8.07s-1.26.08-1.91.11l-1.77,0c-.67,0-1-.17-1-.5a.44.44,0,0,1,.5-.5,5.14,5.14,0,0,0,1-.11l1-.18a1.35,1.35,0,0,0,1.19-1,17.6,17.6,0,0,0,.47-2.23,40,40,0,0,0,.32-5.33q0-3.45,0-7.92Z"></path>
      <path class="cls-1" d="M419.68,27.3V17.94c0-1,0-1.72,0-2.27s-.06-1.07-.11-1.55a6.37,6.37,0,0,0-.58-2.37,2.5,2.5,0,0,0-2-1,8.48,8.48,0,0,0-1.05-.11l-1.11,0a.45.45,0,0,1-.51-.51c0-.33.34-.5,1-.5l2.34,0c.84,0,1.62,0,2.34,0s1.34,0,1.87,0l.94,0,1.22,0c.68,0,1.42,0,2.24,0s1.64,0,2.48,0l2,0a40.6,40.6,0,0,1,6.16.47,13.37,13.37,0,0,1,5.65,2.19,13.77,13.77,0,0,1,1.33,1.19,10.9,10.9,0,0,1,1.44,1.84,11.43,11.43,0,0,1,1.15,2.41,8.79,8.79,0,0,1,.47,2.91,15.35,15.35,0,0,1-1.69,6.81,23.82,23.82,0,0,1-6.09,7.16q3.9,4.91,7.2,8.93t6.05,6.91a15.52,15.52,0,0,0,4.18,3.35,10.14,10.14,0,0,0,2.88.9q.93.15,1.44.18l.79,0c.38,0,.58.16.58.5a.42.42,0,0,1-.33.4,4.49,4.49,0,0,1-1.19.1h-4a22.54,22.54,0,0,1-4.14-.28,10.1,10.1,0,0,1-2.62-.94,13.38,13.38,0,0,1-4-3.31q-1.9-2.24-4.64-5.69c-.68-.82-1.35-1.67-2-2.56l-1.91-2.52-1.65-2.19-1.26-1.66a1.19,1.19,0,0,0-.87-.36l-8.06-.14c-.29,0-.43.17-.43.5v1.44q0,4.47,0,7.89c0,2.28.11,4,.25,5.29a5.58,5.58,0,0,0,.62,2.19,2.43,2.43,0,0,0,1.9,1.05,11.39,11.39,0,0,0,1.52.21c.57.05,1,.08,1.29.08a.44.44,0,0,1,.51.5c0,.33-.34.5-1,.5l-2.63,0-2.45-.07-1.87-.08-.83,0-2.41.11-2.05.07-1.8,0c-.68,0-1-.17-1-.5a.44.44,0,0,1,.5-.5,7.29,7.29,0,0,0,1-.08,5.16,5.16,0,0,0,1-.21,1.5,1.5,0,0,0,1.19-1.05,17.61,17.61,0,0,0,.46-2.19,41.47,41.47,0,0,0,.33-5.33q0-3.45,0-7.92Zm5.48,5.18a.91.91,0,0,0,.43.8,3.74,3.74,0,0,0,1.08.36c.48.09,1,.19,1.69.28s1.33.17,2.05.22,1.44.07,2.16.07a21.81,21.81,0,0,0,2.38-.14,5.25,5.25,0,0,0,2.37-.94,7.82,7.82,0,0,0,2.74-3.45,14.32,14.32,0,0,0,1.08-5.91q0-5.76-2.92-8.89a10.41,10.41,0,0,0-8-3.13c-1,0-1.88,0-2.74.11a10.41,10.41,0,0,0-1.8.25.82.82,0,0,0-.5.72Z"></path>
    </g>
    <g class="cls-2">
      <path class="cls-1" d="M476.56,40a16.33,16.33,0,0,0-.32-3.71,10.92,10.92,0,0,0-1.05-2.55c-.1-.15-.38-.61-.86-1.41s-1.08-1.76-1.8-2.91S471,27,470.19,25.68s-1.67-2.62-2.49-3.89-1.56-2.43-2.23-3.49L464,15.92a18.6,18.6,0,0,0-2.23-2.8,12.91,12.91,0,0,0-2-1.66,6.1,6.1,0,0,0-1.51-.65,5.13,5.13,0,0,0-1.15-.21c-.43,0-.65-.2-.65-.58s.27-.43.79-.43l1.44,0c.68,0,1.35,0,2,0s1.34,0,1.87,0l.94,0c.24,0,.9,0,2-.07s2.24-.07,3.49-.07a1.38,1.38,0,0,1,.72.11.36.36,0,0,1,.14.32c0,.19-.33.41-1,.65a1.12,1.12,0,0,0-.8,1,3,3,0,0,0,.26,1.22,8,8,0,0,0,.61,1.15l11.52,19.08c.19-.43.56-1.13,1.11-2.09l1.88-3.24c.69-1.2,1.44-2.44,2.23-3.74s1.53-2.53,2.23-3.71,1.31-2.21,1.84-3.09l1.08-1.84a9.14,9.14,0,0,0,.82-1.8,4.59,4.59,0,0,0,.26-1.37,1.43,1.43,0,0,0-1-1.58c-.63-.15-.94-.39-.94-.72s.34-.36,1-.36c.82,0,1.69,0,2.63.07s1.52.07,1.76.07l1,0c.56,0,1.17,0,1.84,0s1.33,0,2,0l1.4,0c.53,0,.8.12.8.36a.64.64,0,0,1-.22.43.8.8,0,0,1-.58.22,6.21,6.21,0,0,0-1.36.18,6.12,6.12,0,0,0-1.59.61A8.39,8.39,0,0,0,497,12.58c-.4.4-.94,1-1.62,1.83-.33.43-.85,1.14-1.54,2.13s-1.47,2.12-2.31,3.42-1.71,2.66-2.63,4.1-1.76,2.82-2.55,4.14l-2.09,3.49a24.42,24.42,0,0,0-1.19,2.16,7.33,7.33,0,0,0-.79,3.17v8.21c0,.53,0,1.37,0,2.52s.08,2.35.18,3.6a6,6,0,0,0,.57,2.19A2.33,2.33,0,0,0,485,54.59a11.43,11.43,0,0,0,1.55.21c.6.05,1.05.08,1.33.08a.44.44,0,0,1,.51.5c0,.33-.34.5-1,.5l-2.66,0-2.52-.07-1.91-.08-.9,0-.83,0-1.66.08-2,.07-1.72,0c-.68,0-1-.17-1-.5a.44.44,0,0,1,.5-.5,6.51,6.51,0,0,0,.94-.08,5.07,5.07,0,0,0,.93-.21,1.78,1.78,0,0,0,1.37-1.05,7.69,7.69,0,0,0,.51-2.19c.09-1.25.14-2.45.14-3.6V40Z"></path>
    </g>
  </g>
</svg>
